<svg xmlns="http://www.w3.org/2000/svg" viewBox="0 0 270 80" role="img" aria-label="Golden Grain"><title>Golden Grain</title>
<g transform="translate(4 4) scale(.6)"><g fill="#e9a23b" stroke="none"><rect x="6" y="6" width="108" height="108" rx="34"/></g><circle cx="60" cy="60" r="16" fill="#ffffff"/><line x1="60" y1="30" x2="60" y2="38" stroke="#ffffff" stroke-width="5" stroke-linecap="round" transform="rotate(0 60 60)"/><line x1="60" y1="30" x2="60" y2="38" stroke="#ffffff" stroke-width="5" stroke-linecap="round" transform="rotate(45 60 60)"/><line x1="60" y1="30" x2="60" y2="38" stroke="#ffffff" stroke-width="5" stroke-linecap="round" transform="rotate(90 60 60)"/><line x1="60" y1="30" x2="60" y2="38" stroke="#ffffff" stroke-width="5" stroke-linecap="round" transform="rotate(135 60 60)"/><line x1="60" y1="30" x2="60" y2="38" stroke="#ffffff" stroke-width="5" stroke-linecap="round" transform="rotate(180 60 60)"/><line x1="60" y1="30" x2="60" y2="38" stroke="#ffffff" stroke-width="5" stroke-linecap="round" transform="rotate(225 60 60)"/><line x1="60" y1="30" x2="60" y2="38" stroke="#ffffff" stroke-width="5" stroke-linecap="round" transform="rotate(270 60 60)"/><line x1="60" y1="30" x2="60" y2="38" stroke="#ffffff" stroke-width="5" stroke-linecap="round" transform="rotate(315 60 60)"/></g>
<text x="86" y="48" font-family="'Poppins','Segoe UI','Helvetica Neue',Arial,sans-serif" font-weight="800" font-size="22" fill="#e9a23b" textLength="158" lengthAdjust="spacingAndGlyphs" >Golden Grain</text></svg>
